<?xml version="1.0" ?>
<!-- Uploaded to: SVG Repo, www.svgrepo.com, Generator: SVG Repo Mixer Tools -->
<svg fill="#000000" width="800px" height="800px" viewBox="0 0 512 512" enable-background="new 0 0 512 512" id="Layer_1" version="1.1" xml:space="preserve" xmlns="http://www.w3.org/2000/svg" xmlns:xlink="http://www.w3.org/1999/xlink">
<g>
<path d="M484.408,419.994H380.954v-46.557c0-6.193-5.037-11.224-11.218-11.224h-35.102l66.199-135.483   c3.18-6.514,2.788-14.06-1.05-20.206c-3.832-6.134-10.447-9.8-17.684-9.8h-65.98v-38.394h11.26c7.439,0,13.49-6.051,13.49-13.478   v-94.23c0-19.09-15.531-34.621-34.621-34.621h-4.971c-19.09,0-34.621,15.531-34.621,34.621v94.23   c0,7.427,6.051,13.478,13.49,13.478h17.75v38.394h-66.585c-7.131,0-13.68,3.571-17.536,9.563   c-3.856,5.992-4.396,13.443-1.447,19.921l61.875,136.006h-37.694v-46.237c0-6.371-5.179-11.544-11.544-11.544H27.592   c-6.365,0-11.544,5.173-11.544,11.544v168.479c0,6.371,5.179,11.544,11.544,11.544h456.816c6.371,0,11.544-5.173,11.544-11.544   v-52.917C495.953,425.167,490.78,419.994,484.408,419.994z M284.879,50.621c0-9.041,7.356-16.397,16.397-16.397h4.971   c9.041,0,16.397,7.356,16.397,16.397v9.231h-37.765V50.621z M284.879,78.076h37.765v62.029h-37.765V78.076z M229.097,216.158   c0.291-0.451,0.961-1.21,2.213-1.21h66.585v40.459c0,5.031,4.076,9.112,9.112,9.112c5.031,0,9.112-4.081,9.112-9.112v-40.459h65.98   c1.27,0,1.94,0.771,2.231,1.234c0.285,0.463,0.688,1.412,0.131,2.551l-78.088,159.806c-1.21,2.492-3.613,2.444-4.752-0.071   l-72.707-159.806C228.397,217.523,228.806,216.609,229.097,216.158z M285.033,386.014c3.429,7.534,10.702,12.221,18.984,12.221   c8.032,0,15.205-4.485,18.728-11.699l3.708-7.587c1.394,0.86,2.942,1.489,4.698,1.489h31.578v39.557h-97.332v-39.557h17.097   L285.033,386.014z M247.173,419.994h-97.338v-39.557h97.338V419.994z M34.272,419.994v-39.557h97.338v39.557H34.272z    M218.282,362.213h-97.338v-39.557h97.338V362.213z M34.272,322.656h68.448v39.557H34.272V322.656z M34.272,438.219h39.557v39.557   H34.272V438.219z M92.053,438.219h97.338v39.557H92.053V438.219z M207.616,438.219h97.338v39.557h-97.338V438.219z    M323.178,438.219h96.769v39.557h-96.769V438.219z M477.728,477.776h-38.993v-39.557h38.993V477.776z"/>
</g>
</svg>